<?xml version="1.0" encoding="UTF-8"?>
<!DOCTYPE svg PUBLIC "-//W3C//DTD SVG 1.1//EN" "http://www.w3.org/Graphics/SVG/1.1/DTD/svg11.dtd">
<svg xmlns="http://www.w3.org/2000/svg" version="1.1" width="1368px" height="768px" style="shape-rendering:geometricPrecision; text-rendering:geometricPrecision; image-rendering:optimizeQuality; fill-rule:evenodd; clip-rule:evenodd" xmlns:xlink="http://www.w3.org/1999/xlink">
<g><path style="opacity:1" fill="#000000" d="M -0.5,-0.5 C 455.5,-0.5 911.5,-0.5 1367.5,-0.5C 1367.5,255.5 1367.5,511.5 1367.5,767.5C 911.5,767.5 455.5,767.5 -0.5,767.5C -0.5,511.5 -0.5,255.5 -0.5,-0.5 Z"/></g>
<g><path style="opacity:1" fill="#74ad52" d="M 249.5,337.5 C 256.661,336.749 263.328,338.083 269.5,341.5C 273.526,345.938 277.692,350.271 282,354.5C 285.346,360.037 287.179,366.037 287.5,372.5C 291.797,370.04 294.297,366.374 295,361.5C 296.579,359.959 298.413,358.792 300.5,358C 305.833,357.333 311.167,357.333 316.5,358C 318.002,358.583 319.335,359.416 320.5,360.5C 316.296,365.719 311.963,370.886 307.5,376C 303.522,377.573 299.522,377.906 295.5,377C 292.067,380.042 289.234,383.542 287,387.5C 286.819,396.744 286.319,405.911 285.5,415C 283.231,415.758 281.064,415.591 279,414.5C 278.667,399.5 278.333,384.5 278,369.5C 277.836,363.522 275.336,358.855 270.5,355.5C 266.295,359.136 261.961,359.302 257.5,356C 253.048,350.926 248.714,345.759 244.5,340.5C 246.145,339.304 247.811,338.304 249.5,337.5 Z"/></g>
<g><path style="opacity:1" fill="#eaeaea" d="M 376.5,348.5 C 377.822,348.33 378.989,348.663 380,349.5C 386,366.833 392,384.167 398,401.5C 400.381,402.435 402.881,402.768 405.5,402.5C 405.5,403.5 405.5,404.5 405.5,405.5C 398.167,405.5 390.833,405.5 383.5,405.5C 383.5,404.5 383.5,403.5 383.5,402.5C 385.5,402.5 387.5,402.5 389.5,402.5C 389.124,397.374 388.124,392.374 386.5,387.5C 379.5,387.5 372.5,387.5 365.5,387.5C 364.806,391.083 363.806,394.583 362.5,398C 362.901,401.562 364.901,403.062 368.5,402.5C 368.5,403.5 368.5,404.5 368.5,405.5C 362.833,405.5 357.167,405.5 351.5,405.5C 351.5,404.5 351.5,403.5 351.5,402.5C 355.493,402.755 358.326,401.089 360,397.5C 365.409,381.106 370.909,364.773 376.5,348.5 Z"/></g>
<g><path style="opacity:1" fill="#ebebeb" d="M 652.5,348.5 C 654.411,348.574 655.578,349.574 656,351.5C 661.864,368.092 667.531,384.759 673,401.5C 675.381,402.435 677.881,402.768 680.5,402.5C 680.5,403.5 680.5,404.5 680.5,405.5C 673.167,405.5 665.833,405.5 658.5,405.5C 658.5,404.5 658.5,403.5 658.5,402.5C 660.527,402.662 662.527,402.495 664.5,402C 665.022,401.439 665.355,400.772 665.5,400C 663.725,395.956 662.392,391.789 661.5,387.5C 654.825,387.334 648.158,387.5 641.5,388C 639.756,391.324 638.423,394.824 637.5,398.5C 638.136,401.794 640.136,403.127 643.5,402.5C 643.5,403.5 643.5,404.5 643.5,405.5C 637.833,405.5 632.167,405.5 626.5,405.5C 626.5,404.5 626.5,403.5 626.5,402.5C 630.683,403.154 633.516,401.488 635,397.5C 640.547,381.024 646.38,364.691 652.5,348.5 Z"/></g>
<g><path style="opacity:1" fill="#e9e9e9" d="M 815.5,350.5 C 820.641,350.644 822.975,353.311 822.5,358.5C 822.318,363.881 820.651,368.714 817.5,373C 816.5,373.667 815.5,373.667 814.5,373C 818.547,369.027 820.547,364.194 820.5,358.5C 813.378,359.206 811.712,356.54 815.5,350.5 Z"/></g>
<g><path style="opacity:1" fill="#eeeeee" d="M 911.5,349.5 C 919.359,348.677 926.359,350.677 932.5,355.5C 934.121,353.376 935.954,351.376 938,349.5C 938.831,357.188 938.665,364.855 937.5,372.5C 936.061,366.691 933.561,361.358 930,356.5C 914.213,348.556 903.88,353.223 899,370.5C 897.917,378.76 898.917,386.76 902,394.5C 908.619,404.683 917.453,407.183 928.5,402C 933.981,397.873 936.981,392.373 937.5,385.5C 938.346,396.522 933.346,403.689 922.5,407C 899.445,406.6 888.945,394.767 891,371.5C 894.259,360.744 901.092,353.411 911.5,349.5 Z"/></g>
<g><path style="opacity:1" fill="#f4f4f4" d="M 696.5,356.5 C 696.5,361.5 696.5,366.5 696.5,371.5C 700.5,371.5 704.5,371.5 708.5,371.5C 708.5,372.167 708.5,372.833 708.5,373.5C 704.5,373.5 700.5,373.5 696.5,373.5C 696.174,382.017 696.507,390.35 697.5,398.5C 697.648,403.15 699.981,404.983 704.5,404C 705.893,402.829 706.727,401.329 707,399.5C 707.182,396.774 707.682,394.107 708.5,391.5C 710.127,396.36 709.461,400.86 706.5,405C 700.365,407.682 695.531,406.182 692,400.5C 691.5,391.84 691.334,383.173 691.5,374.5C 689.708,373.691 687.708,373.191 685.5,373C 686.056,372.617 686.389,372.117 686.5,371.5C 688.17,371.249 689.67,370.582 691,369.5C 693.003,365.038 694.836,360.705 696.5,356.5 Z"/></g>
<g><path style="opacity:1" fill="#0c0c0c" d="M 375.5,359.5 C 378.864,367.246 381.864,375.246 384.5,383.5C 378.872,384.495 373.206,384.829 367.5,384.5C 370.163,376.178 372.829,367.845 375.5,359.5 Z"/></g>
<g><path style="opacity:1" fill="#0c0c0c" d="M 650.5,359.5 C 654.299,367.454 657.299,375.787 659.5,384.5C 653.794,384.829 648.128,384.495 642.5,383.5C 645.376,375.539 648.043,367.539 650.5,359.5 Z"/></g>
<g><path style="opacity:1" fill="#4b4b4b" d="M 696.5,356.5 C 697.486,360.97 697.819,365.637 697.5,370.5C 701.371,370.185 705.038,370.518 708.5,371.5C 704.5,371.5 700.5,371.5 696.5,371.5C 696.5,366.5 696.5,361.5 696.5,356.5 Z"/></g>
<g><path style="opacity:1" fill="#e6e6e6" d="M 786.5,369.5 C 798.479,368.98 804.313,374.647 804,386.5C 796.253,387.482 788.42,387.815 780.5,387.5C 779.393,395.03 782.06,400.53 788.5,404C 795.252,404.958 799.919,402.291 802.5,396C 803.332,395.312 803.998,395.479 804.5,396.5C 798.916,407.044 790.916,409.211 780.5,403C 772.628,395.09 771.462,386.257 777,376.5C 779.825,373.524 782.992,371.191 786.5,369.5 Z"/></g>
<g><path style="opacity:1" fill="#eaeaea" d="M 959.5,369.5 C 974.185,370.217 981.018,377.884 980,392.5C 978.202,399.631 973.702,404.131 966.5,406C 950.902,406.058 944.069,398.225 946,382.5C 949.101,376.563 953.601,372.23 959.5,369.5 Z"/></g>
<g><path style="opacity:1" fill="#eeeeee" d="M 1090.5,386.5 C 1082.5,386.5 1074.5,386.5 1066.5,386.5C 1066.21,388.735 1066.54,390.735 1067.5,392.5C 1068.82,402.316 1074.15,405.816 1083.5,403C 1086.09,400.985 1088.09,398.485 1089.5,395.5C 1090.29,399.092 1088.96,401.925 1085.5,404C 1073.78,408.87 1065.62,405.37 1061,393.5C 1058.48,382.034 1062.65,374.2 1073.5,370C 1084.9,369.569 1090.57,375.069 1090.5,386.5 Z"/></g>
<g><path style="opacity:1" fill="#ededed" d="M 1095.5,370.5 C 1099.17,370.5 1102.83,370.5 1106.5,370.5C 1106.34,372.857 1106.5,375.19 1107,377.5C 1109.39,371.748 1113.56,369.581 1119.5,371C 1123.7,374.206 1123.37,376.706 1118.5,378.5C 1115.48,377.62 1114.82,375.786 1116.5,373C 1115.17,372.333 1113.83,372.333 1112.5,373C 1109.77,375.626 1107.94,378.793 1107,382.5C 1106.33,388.833 1106.33,395.167 1107,401.5C 1109.38,402.435 1111.88,402.768 1114.5,402.5C 1114.5,403.5 1114.5,404.5 1114.5,405.5C 1108.17,405.5 1101.83,405.5 1095.5,405.5C 1095.5,404.5 1095.5,403.5 1095.5,402.5C 1097.5,402.5 1099.5,402.5 1101.5,402.5C 1101.67,393.494 1101.5,384.494 1101,375.5C 1099.56,373.845 1097.72,373.178 1095.5,373.5C 1095.5,372.5 1095.5,371.5 1095.5,370.5 Z"/></g>
<g><path style="opacity:1" fill="#e8e8e8" d="M 410.5,370.5 C 414.167,370.5 417.833,370.5 421.5,370.5C 420.582,378.102 421.916,378.935 425.5,373C 430.314,370.107 435.314,369.774 440.5,372C 442.487,373.319 443.654,375.152 444,377.5C 448.55,370.565 454.717,368.732 462.5,372C 464.049,373.214 465.215,374.714 466,376.5C 466.5,385.16 466.666,393.827 466.5,402.5C 468.5,402.5 470.5,402.5 472.5,402.5C 472.5,403.5 472.5,404.5 472.5,405.5C 466.5,405.5 460.5,405.5 454.5,405.5C 454.5,404.5 454.5,403.5 454.5,402.5C 456.5,402.5 458.5,402.5 460.5,402.5C 460.666,393.494 460.5,384.494 460,375.5C 453.824,370.836 448.824,372.17 445,379.5C 444.5,387.159 444.334,394.826 444.5,402.5C 446.5,402.5 448.5,402.5 450.5,402.5C 450.5,403.5 450.5,404.5 450.5,405.5C 444.5,405.5 438.5,405.5 432.5,405.5C 432.5,404.5 432.5,403.5 432.5,402.5C 434.5,402.5 436.5,402.5 438.5,402.5C 438.666,393.494 438.5,384.494 438,375.5C 431.705,370.842 426.705,372.175 423,379.5C 422.5,387.159 422.334,394.826 422.5,402.5C 424.5,402.5 426.5,402.5 428.5,402.5C 428.5,403.5 428.5,404.5 428.5,405.5C 422.5,405.5 416.5,405.5 410.5,405.5C 410.5,404.5 410.5,403.5 410.5,402.5C 412.5,402.5 414.5,402.5 416.5,402.5C 416.832,393.143 416.498,383.81 415.5,374.5C 413.929,373.691 412.262,373.357 410.5,373.5C 410.5,372.5 410.5,371.5 410.5,370.5 Z"/></g>
<g><path style="opacity:1" fill="#eeeeee" d="M 490.5,369.5 C 505.473,370.635 512.307,378.635 511,393.5C 505.512,405.495 496.679,408.995 484.5,404C 474.677,394.612 474.01,384.612 482.5,374C 485.099,372.205 487.766,370.705 490.5,369.5 Z"/></g>
<g><path style="opacity:1" fill="#e4e4e4" d="M 556.5,350.5 C 560.167,350.5 563.833,350.5 567.5,350.5C 567.334,359.173 567.5,367.84 568,376.5C 574.051,369.326 580.718,368.66 588,374.5C 589.445,383.726 589.945,393.06 589.5,402.5C 591.5,402.5 593.5,402.5 595.5,402.5C 595.5,403.5 595.5,404.5 595.5,405.5C 589.5,405.5 583.5,405.5 577.5,405.5C 577.5,404.5 577.5,403.5 577.5,402.5C 579.5,402.5 581.5,402.5 583.5,402.5C 583.666,393.161 583.5,383.827 583,374.5C 575.389,370.801 570.389,373.135 568,381.5C 567.333,388.167 567.333,394.833 568,401.5C 569.699,402.406 571.533,402.739 573.5,402.5C 573.5,403.5 573.5,404.5 573.5,405.5C 567.5,405.5 561.5,405.5 555.5,405.5C 555.5,404.5 555.5,403.5 555.5,402.5C 557.5,402.5 559.5,402.5 561.5,402.5C 561.833,386.486 561.499,370.486 560.5,354.5C 558.775,353.985 557.108,353.318 555.5,352.5C 555.863,351.817 556.196,351.15 556.5,350.5 Z"/></g>
<g><path style="opacity:1" fill="#f0f0f0" d="M 715.5,371.5 C 720.875,371.172 726.208,371.505 731.5,372.5C 729.483,373.219 727.817,374.386 726.5,376C 729.343,383.2 732.176,390.367 735,397.5C 737.027,391.28 739.194,385.113 741.5,379C 740.609,375.275 738.276,373.109 734.5,372.5C 739.833,371.167 745.167,371.167 750.5,372.5C 749.271,373.281 747.938,373.781 746.5,374C 745.978,374.561 745.645,375.228 745.5,376C 748.031,383.559 750.697,391.059 753.5,398.5C 756.334,391.83 758.668,384.997 760.5,378C 760.167,376.833 759.833,375.667 759.5,374.5C 758.328,374.081 757.328,373.415 756.5,372.5C 760.833,371.167 765.167,371.167 769.5,372.5C 766.585,373.704 764.419,375.704 763,378.5C 759.903,388.138 756.236,397.471 752,406.5C 748.742,398.898 745.575,391.231 742.5,383.5C 739.431,391.042 736.764,398.709 734.5,406.5C 733.5,406.5 732.5,406.5 731.5,406.5C 728.308,396.09 724.808,385.757 721,375.5C 718.869,374.385 717.035,373.052 715.5,371.5 Z"/></g>
<g><path style="opacity:1" fill="#eeeeee" d="M 985.5,370.5 C 989.167,370.5 992.833,370.5 996.5,370.5C 996.337,372.857 996.503,375.19 997,377.5C 999.782,370.483 1004.45,368.817 1011,372.5C 1012.51,377.656 1010.85,379.323 1006,377.5C 1005.51,375.866 1005.34,374.199 1005.5,372.5C 1002.01,373.143 999.512,375.143 998,378.5C 996.437,386.087 996.104,393.754 997,401.5C 999.381,402.435 1001.88,402.768 1004.5,402.5C 1004.5,403.5 1004.5,404.5 1004.5,405.5C 998.167,405.5 991.833,405.5 985.5,405.5C 985.5,404.5 985.5,403.5 985.5,402.5C 987.467,402.739 989.301,402.406 991,401.5C 991.667,392.833 991.667,384.167 991,375.5C 989.556,373.845 987.722,373.178 985.5,373.5C 985.5,372.5 985.5,371.5 985.5,370.5 Z"/></g>
<g><path style="opacity:1" fill="#e7e7e7" d="M 1016.5,370.5 C 1020.17,370.5 1023.83,370.5 1027.5,370.5C 1026.58,378.102 1027.92,378.935 1031.5,373C 1037.19,369.506 1042.69,369.673 1048,373.5C 1048.42,374.672 1049.09,375.672 1050,376.5C 1050.5,385.16 1050.67,393.827 1050.5,402.5C 1052.5,402.5 1054.5,402.5 1056.5,402.5C 1056.5,403.5 1056.5,404.5 1056.5,405.5C 1050.5,405.5 1044.5,405.5 1038.5,405.5C 1038.5,404.5 1038.5,403.5 1038.5,402.5C 1040.5,402.5 1042.5,402.5 1044.5,402.5C 1044.67,393.494 1044.5,384.494 1044,375.5C 1037.7,370.842 1032.7,372.175 1029,379.5C 1028.5,387.159 1028.33,394.826 1028.5,402.5C 1030.5,402.5 1032.5,402.5 1034.5,402.5C 1034.5,403.5 1034.5,404.5 1034.5,405.5C 1028.5,405.5 1022.5,405.5 1016.5,405.5C 1016.5,404.5 1016.5,403.5 1016.5,402.5C 1018.5,402.5 1020.5,402.5 1022.5,402.5C 1022.83,393.143 1022.5,383.81 1021.5,374.5C 1019.93,373.691 1018.26,373.357 1016.5,373.5C 1016.5,372.5 1016.5,371.5 1016.5,370.5 Z"/></g>
<g><path style="opacity:1" fill="#080808" d="M 490.5,371.5 C 496.957,370.975 501.457,373.642 504,379.5C 504.818,385.902 504.484,392.235 503,398.5C 497.408,405.987 491.408,406.32 485,399.5C 482.175,392.609 481.842,385.609 484,378.5C 485.694,375.642 487.861,373.309 490.5,371.5 Z"/></g>
<g><path style="opacity:1" fill="#080808" d="M 787.5,371.5 C 795.879,372.194 799.546,376.861 798.5,385.5C 792.5,385.5 786.5,385.5 780.5,385.5C 780.203,379.426 782.537,374.759 787.5,371.5 Z"/></g>
<g><path style="opacity:1" fill="#e9e9e9" d="M 839.5,369.5 C 843.487,369.284 847.32,369.951 851,371.5C 852.44,370.852 853.94,370.519 855.5,370.5C 855.5,374.167 855.5,377.833 855.5,381.5C 854.5,381.5 853.5,381.5 852.5,381.5C 852.936,374.769 849.769,371.436 843,371.5C 835.489,372.159 833.656,375.659 837.5,382C 842.207,383.12 846.874,384.453 851.5,386C 856.272,389.699 857.772,394.533 856,400.5C 850.143,407.284 843.31,408.284 835.5,403.5C 834.186,404.313 833.019,405.313 832,406.5C 831.172,401.798 831.338,397.131 832.5,392.5C 834.534,403.013 840.534,406.513 850.5,403C 854.5,399.333 854.5,395.667 850.5,392C 845.833,390.667 841.167,389.333 836.5,388C 829.138,380.383 830.138,374.216 839.5,369.5 Z"/></g>
<g><path style="opacity:1" fill="#050505" d="M 959.5,371.5 C 965.682,370.719 970.182,373.053 973,378.5C 973.877,385.249 973.544,391.916 972,398.5C 968.523,404.214 963.69,405.714 957.5,403C 955.106,401.048 953.606,398.548 953,395.5C 952.182,389.098 952.516,382.765 954,376.5C 955.812,374.7 957.645,373.033 959.5,371.5 Z"/></g>
<g><path style="opacity:1" fill="#080808" d="M 1074.5,371.5 C 1082.49,372.513 1086.16,377.179 1085.5,385.5C 1079.5,385.5 1073.5,385.5 1067.5,385.5C 1066.67,379.166 1069,374.5 1074.5,371.5 Z"/></g>
<g><path style="opacity:1" fill="#575757" d="M 686.5,371.5 C 686.389,372.117 686.056,372.617 685.5,373C 687.708,373.191 689.708,373.691 691.5,374.5C 689.167,374.5 686.833,374.5 684.5,374.5C 684.285,372.821 684.952,371.821 686.5,371.5 Z"/></g>
<g><path style="opacity:1" fill="#6e6e6e" d="M 708.5,373.5 C 705.038,374.482 701.371,374.815 697.5,374.5C 697.5,382.5 697.5,390.5 697.5,398.5C 696.507,390.35 696.174,382.017 696.5,373.5C 700.5,373.5 704.5,373.5 708.5,373.5 Z"/></g>
<g><path style="opacity:1" fill="#a3a3a3" d="M 1090.5,386.5 C 1083.02,387.492 1075.35,387.825 1067.5,387.5C 1067.5,389.167 1067.5,390.833 1067.5,392.5C 1066.54,390.735 1066.21,388.735 1066.5,386.5C 1074.5,386.5 1082.5,386.5 1090.5,386.5 Z"/></g>
<g><path style="opacity:1" fill="#e6e6e6" d="M 544.5,369.5 C 546.527,369.338 548.527,369.505 550.5,370C 553.49,373.379 552.824,375.045 548.5,375C 547.663,373.989 547.33,372.822 547.5,371.5C 544.939,371.447 542.939,372.447 541.5,374.5C 545.992,381.213 544.992,387.046 538.5,392C 533.396,394.153 528.396,393.987 523.5,391.5C 521.875,394.94 522.542,397.773 525.5,400C 531.167,400.333 536.833,400.667 542.5,401C 554.725,408.228 554.391,414.895 541.5,421C 533.769,422.397 526.436,421.397 519.5,418C 513.724,411.921 514.724,407.088 522.5,403.5C 518.936,399.269 518.602,394.769 521.5,390C 516.37,381.934 518.037,375.601 526.5,371C 531.357,370.002 535.857,370.835 540,373.5C 541.397,371.93 542.897,370.596 544.5,369.5 Z"/></g>
<g><path style="opacity:1" fill="#0b0b0b" d="M 528.5,372.5 C 533.133,371.458 536.299,373.125 538,377.5C 539.426,382.757 538.259,387.257 534.5,391C 531.331,391.978 528.497,391.478 526,389.5C 523.241,383.111 524.074,377.445 528.5,372.5 Z"/></g>
<g><path style="opacity:1" fill="#030303" d="M 523.5,405.5 C 530.589,405.116 537.589,405.616 544.5,407C 548.135,413.075 546.468,417.075 539.5,419C 535.167,419.667 530.833,419.667 526.5,419C 519.859,415.635 518.859,411.135 523.5,405.5 Z"/></g>
</svg>
